<svg width="100" height="100" xmlns="http://www.w3.org/2000/svg">

 <g>
  <title>Layer 1</title>
  <g stroke="null">
   <path stroke="null" fill="#bfbfbf" p-id="12791" d="m87.23599,41.75263l-25.84707,0c-2.06704,-0.24895 -3.64192,-2.0758 -3.64192,-4.22847l0,-27.23796a4.16688,4.18454 0 0 0 -4.16688,-4.1882l-9.04465,0c-2.31493,0 -4.17417,1.88542 -4.17417,4.19186l0,27.52352c-0.11301,2.0758 -1.81914,3.74888 -3.86795,3.93925l-6.76982,0a4.22521,4.24312 0 0 1 -3.66015,-3.94291l0,-27.51986c0,-2.32475 -1.87747,-4.19186 -4.17053,-4.19186l-9.0483,0c-2.31129,0 -4.17053,1.88542 -4.17053,4.19186l0,79.48066c0,2.32475 1.87747,4.19186 4.17053,4.19186l74.40965,0c2.31494,0 4.17053,-1.88542 4.17053,-4.19186l0,-43.82603a4.18511,4.20285 0 0 0 -4.18876,-4.19186zm-11.90642,30.05694c0,2.32475 -1.87747,4.19186 -4.17053,4.19186l-9.04465,0a4.17053,4.1882 0 0 1 -4.17053,-4.19186l0,-8.57044c0,-2.32475 1.87747,-4.19186 4.17053,-4.19186l9.04465,0c2.31493,0 4.17053,1.88542 4.17053,4.19186l0,8.57044z"/>
  </g>
 </g>
</svg>